<svg width="1920" height="1080" viewBox="0 0 1920 1080" fill="none" xmlns="http://www.w3.org/2000/svg">
<g clip-path="url(#clip0_1069_2)">
<rect width="1920" height="1080" fill="#0C0E1F"/>
<rect y="999" width="1920" height="81" fill="#B8FE4E"/>
<path d="M499 853.5L450 881.5V938L499 967L548 938M499 853.5L548 881.5M499 853.5V797L548 768L597 797V853.5M548 881.5V938M548 881.5L597 853.5M548 938L597 967M597 967L646.5 938M597 967V998.5M646.5 938V881.5L597 853.5M646.5 938L695.5 967M695.5 967V998.5M695.5 967L745 938M745 938V881.5M745 938L794.5 967M745 881.5L695.5 853.5V797L745 768L794.5 797V853.5M745 881.5L794.5 853.5M794.5 853.5L842.5 881.5M794.5 967V998.5M794.5 967L842.5 938M842.5 881.5L893 853.5L941 881.5V938M842.5 881.5V938M941 938L893 967M941 938L990.5 967V998.5M893 967L842.5 938M893 967V998.5" stroke="white" stroke-opacity="0.8" stroke-width="2"/>
<path d="M0 111L19 100L68 129V186L19 214.5M19 214.5L0 203.5M19 214.5V270.5M19 270.5L68 300V356M19 270.5L0 281M68 356L19 384M68 356L116.5 384M19 384V441.5M19 384L0 374.5M19 441.5L68 469.5M19 441.5L0 452M68 469.5V525L116.5 554.5M68 469.5L116.5 441.5M116.5 554.5L166.5 525M116.5 554.5V611.5M166.5 525V469.5M166.5 525L216.5 554.5M166.5 469.5L116.5 441.5M166.5 469.5L216.5 441.5M116.5 441.5V384M116.5 384L166.5 356M166.5 356V300L216.5 270.5L264.5 300V356M166.5 356L216.5 384M264.5 356L216.5 384M264.5 356L314.5 384V441.5M216.5 384V441.5M216.5 441.5L264.5 469.5M264.5 469.5L314.5 441.5M264.5 469.5V525M314.5 441.5L362 469.5V525L314.5 554.5M314.5 554.5L264.5 525M314.5 554.5V611.5L264.5 639.5L216.5 611.5M264.5 525L216.5 554.5M216.5 554.5V611.5M216.5 611.5L166.5 639.5M116.5 611.5L68 639.5V697L116.5 725.5L166.5 697V639.5M116.5 611.5L166.5 639.5" stroke="white" stroke-opacity="0.8" stroke-width="2"/>
<path d="M1221 939L1173 966.5V999M1221 939V881.5L1270.5 853L1319 881.5V939M1221 939L1270.5 966.5M1319 939L1270.5 966.5M1319 939L1367.5 966.5M1270.5 966.5L1271 999M1367.5 966.5L1418 939M1367.5 966.5V999M1418 939V881.5M1418 939L1466.5 966.5M1418 881.5L1367.5 853V795.5L1418 768M1418 881.5L1466.5 853M1418 768L1466.5 795.5M1418 768V711.5M1466.5 795.5V853M1466.5 795.5L1516 768V711.5L1466 683M1466.5 853L1516 881.5M1418 711.5L1369 683M1418 711.5L1466 683M1369 683L1320 711.5L1271 683V625.5L1320 597L1369 625.5M1369 683V625.5M1369 625.5L1418 597L1466 625.5V683M1516 881.5V939M1516 881.5L1566 853M1516 939L1466.5 966.5M1516 939L1566 966.5M1466.5 966.5V999M1566 966.5L1614 939M1566 966.5V999M1614 939V881.5M1614 939L1663.5 966.5M1614 881.5L1566 853M1614 881.5L1663.5 853M1566 853V795.5L1614 768M1663.5 966.5L1713 939M1663.5 966.5V999M1713 939V883L1663.5 853M1713 939L1761.5 966.5V999M1663.5 853V795.5M1663.5 795.5L1713 768V711.5M1663.5 795.5L1614 768M1713 711.5L1761.5 683V625.5L1713 597L1663.5 625.5V683M1713 711.5L1663.5 683M1663.5 683L1614 711.5V768" stroke="white" stroke-opacity="0.8" stroke-width="2"/>
<path d="M517.5 305.5V248.5L470 220L420 248.5V305.5L470 334M517.5 305.5L470 334M517.5 305.5L567 334M470 334V390.5L517.5 419L567 390.5M567 390.5V334M567 390.5L616.5 419L665 390.5M567 334L616.5 305.5L665 334M665 390.5V334M665 390.5L715 419M665 334L715 305.5L763.5 334V390.5M763.5 390.5L715 419M763.5 390.5L813.5 419M715 419V475.5L763.5 504L813.5 475.5M813.5 475.5V419M813.5 475.5L862.5 504M813.5 419L862.5 390.5M862.5 504V561L912 589.5L960 561V504L912 475.5M862.5 504L912 475.5M912 475.5V419M912 419L862.5 390.5M912 419L960 390.5V334L912 305.5M862.5 390.5V334M912 305.5L862.5 334M912 305.5V250.5L862.5 219.5M862.5 334L813.5 305.5V250.5M862.5 219.5L813.5 250.5M862.5 219.5V164.5M813.5 250.5L763.5 219.5M763.5 219.5L715 250.5L665 219.5V164.5L715 136.5L763.5 164.5M763.5 219.5V164.5M763.5 164.5L813.5 136.5M862.5 164.5L813.5 136.5M862.5 164.5L911.5 136.5V79L862.5 49.5M813.5 136.5V79M813.5 79L763.5 50.5M813.5 79L862.5 49.5M763.5 50.5L715 79L665 50.5M763.5 50.5V0M665 50.5L616.5 79M665 50.5V0M616.5 79V136.5L567 164.5L517.5 136.5M616.5 79L567 50.5M517.5 136.5L470 164.5L420 136.5V79L470 50.5L517.5 79M517.5 136.5V79M517.5 79L567 50.5M567 50.5V0M862.5 49.5V0" stroke="white" stroke-opacity="0.8" stroke-width="2"/>
<path d="M1165 305L1117 332L1066.5 305V247.5L1117 219.5M1165 305V247.5M1165 305L1215 332L1264.5 305M1165 247.5L1117 219.5M1165 247.5L1215 219.5M1117 219.5V160L1166 133.5M1264.5 305L1313 332L1361.5 305V247.5L1313 219.5L1264.5 247.5M1264.5 305V247.5M1264.5 247.5L1215 219.5M1215 219.5V160M1018 0V48L1066.5 76L1117 48M1117 48L1166 76M1117 48V0M1166 76L1215 48M1166 76V133.5M1215 48L1264.5 76V134.5L1215 160M1215 48V0M1215 160L1166 133.5" stroke="white" stroke-opacity="0.8" stroke-width="2"/>
<path d="M1533 0V49L1582 78L1632 49M1632 49L1681 78L1730 49V0M1632 49V0" stroke="white" stroke-opacity="0.8" stroke-width="2"/>
<path d="M1582 440L1533 468V525.5L1582 554L1631.5 525.5V468M1582 440V382.5L1631.5 354L1679.5 382.5V440L1631.5 468M1582 440L1631.5 468" stroke="white" stroke-opacity="0.8" stroke-width="2"/>
<path d="M1865 383.5L1816.5 355L1768 383.5V440.5L1816.5 468L1865 440.5M1865 383.5V440.5M1865 383.5L1915.5 355M1865 440.5L1915.5 468M1915.5 355V299.5L1920.5 295M1915.5 355L1920.5 358.5M1915.5 468V526L1920.5 529M1915.5 468L1920.5 465.5" stroke="white" stroke-opacity="0.8" stroke-width="2"/>
<path d="M1920 705L1915 708.5V764.5L1920 768" stroke="white" stroke-opacity="0.8" stroke-width="2"/>
<path d="M1920 65L1915 68.5V124.5L1920 128" stroke="white" stroke-opacity="0.8" stroke-width="2"/>
<path d="M1816.5 768L1768 796.5V853L1816.5 881L1866 853V796.5L1816.5 768Z" stroke="white" stroke-opacity="0.8" stroke-width="2"/>
<path opacity="0.8" d="M1277.5 381L1229 409.5V466L1277.5 494L1327 466V409.5L1277.5 381Z" stroke="white" stroke-opacity="0.8" stroke-width="2"/>
<path d="M1020 684L971 712V769.5L1020 798L1069.5 769.5V712M1020 684V626.5L1069.5 598L1117.5 626.5V684L1069.5 712M1020 684L1069.5 712M1068 713.5L1116.5 685L1166 713.5V770L1116.5 798L1068 770V713.5Z" stroke="white" stroke-opacity="0.8" stroke-width="2"/>
<path d="M147.5 78.5C147.5 85.4036 141.904 91 135 91C128.096 91 122.5 85.4036 122.5 78.5C122.5 71.5964 128.096 66 135 66C141.904 66 147.5 71.5964 147.5 78.5Z" fill="#B8FE4E" fill-opacity="0.8"/>
<path d="M41.5 139.5C41.5 146.404 35.9036 152 29 152C22.0964 152 16.5 146.404 16.5 139.5C16.5 132.596 22.0964 127 29 127C35.9036 127 41.5 132.596 41.5 139.5Z" fill="#B8FE4E" fill-opacity="0.8"/>
<path d="M124 84.5L40 133.5M134.5 0V66M18 133.5L0 122.5M147.5 78.5C147.5 85.4036 141.904 91 135 91C128.096 91 122.5 85.4036 122.5 78.5C122.5 71.5964 128.096 66 135 66C141.904 66 147.5 71.5964 147.5 78.5ZM41.5 139.5C41.5 146.404 35.9036 152 29 152C22.0964 152 16.5 146.404 16.5 139.5C16.5 132.596 22.0964 127 29 127C35.9036 127 41.5 132.596 41.5 139.5Z" stroke="#B8FE4E" stroke-opacity="0.9" stroke-width="2"/>
<path d="M-164 662.5C-164 669.404 -169.596 675 -176.5 675C-183.404 675 -189 669.404 -189 662.5C-189 655.596 -183.404 650 -176.5 650C-169.596 650 -164 655.596 -164 662.5Z" fill="#B8FE4E" fill-opacity="0.8"/>
<path d="M-164 541.5C-164 548.404 -169.596 554 -176.5 554C-183.404 554 -189 548.404 -189 541.5C-189 534.596 -183.404 529 -176.5 529C-169.596 529 -164 534.596 -164 541.5Z" fill="#B8FE4E" fill-opacity="0.8"/>
<path d="M47 662.5C47 669.404 41.4036 675 34.5 675C27.5964 675 22 669.404 22 662.5C22 655.596 27.5964 650 34.5 650C41.4036 650 47 655.596 47 662.5Z" fill="#B8FE4E" fill-opacity="0.8"/>
<path d="M47 541.5C47 548.404 41.4036 554 34.5 554C27.5964 554 22 548.404 22 541.5C22 534.596 27.5964 529 34.5 529C41.4036 529 47 534.596 47 541.5Z" fill="#B8FE4E" fill-opacity="0.8"/>
<path d="M-58 480.5C-58 487.404 -63.5964 493 -70.5 493C-77.4036 493 -83 487.404 -83 480.5C-83 473.596 -77.4036 468 -70.5 468C-63.5964 468 -58 473.596 -58 480.5Z" fill="#B8FE4E" fill-opacity="0.8"/>
<path d="M-58 724.5C-58 731.404 -63.5964 737 -70.5 737C-77.4036 737 -83 731.404 -83 724.5C-83 717.596 -77.4036 712 -70.5 712C-63.5964 712 -58 717.596 -58 724.5Z" fill="#B8FE4E" fill-opacity="0.8"/>
<path d="M-81.5 486.5L-165.5 535M-175.5 554V650M-165.5 668.5L-81 718M-59.5 718.5L24 669M-59.5 486.5L24 535M35 650V554M-164 662.5C-164 669.404 -169.596 675 -176.5 675C-183.404 675 -189 669.404 -189 662.5C-189 655.596 -183.404 650 -176.5 650C-169.596 650 -164 655.596 -164 662.5ZM-164 541.5C-164 548.404 -169.596 554 -176.5 554C-183.404 554 -189 548.404 -189 541.5C-189 534.596 -183.404 529 -176.5 529C-169.596 529 -164 534.596 -164 541.5ZM47 662.5C47 669.404 41.4036 675 34.5 675C27.5964 675 22 669.404 22 662.5C22 655.596 27.5964 650 34.5 650C41.4036 650 47 655.596 47 662.5ZM47 541.5C47 548.404 41.4036 554 34.5 554C27.5964 554 22 548.404 22 541.5C22 534.596 27.5964 529 34.5 529C41.4036 529 47 534.596 47 541.5ZM-58 480.5C-58 487.404 -63.5964 493 -70.5 493C-77.4036 493 -83 487.404 -83 480.5C-83 473.596 -77.4036 468 -70.5 468C-63.5964 468 -58 473.596 -58 480.5ZM-58 724.5C-58 731.404 -63.5964 737 -70.5 737C-77.4036 737 -83 731.404 -83 724.5C-83 717.596 -77.4036 712 -70.5 712C-63.5964 712 -58 717.596 -58 724.5Z" stroke="#B8FE4E" stroke-opacity="0.9" stroke-width="2"/>
<path d="M1080 1099.5C1080 1106.4 1074.4 1112 1067.5 1112C1060.6 1112 1055 1106.4 1055 1099.5C1055 1092.6 1060.6 1087 1067.5 1087C1074.4 1087 1080 1092.6 1080 1099.5Z" fill="#B8FE4E" fill-opacity="0.8"/>
<path d="M1080 978.5C1080 985.404 1074.4 991 1067.5 991C1060.6 991 1055 985.404 1055 978.5C1055 971.596 1060.6 966 1067.5 966C1074.4 966 1080 971.596 1080 978.5Z" fill="#B8FE4E" fill-opacity="0.8"/>
<path d="M1291 1099.5C1291 1106.4 1285.4 1112 1278.5 1112C1271.6 1112 1266 1106.4 1266 1099.5C1266 1092.6 1271.6 1087 1278.5 1087C1285.4 1087 1291 1092.6 1291 1099.5Z" fill="#B8FE4E" fill-opacity="0.8"/>
<path d="M1291 978.5C1291 985.404 1285.4 991 1278.5 991C1271.6 991 1266 985.404 1266 978.5C1266 971.596 1271.6 966 1278.5 966C1285.4 966 1291 971.596 1291 978.5Z" fill="#B8FE4E" fill-opacity="0.8"/>
<path d="M1186 917.5C1186 924.404 1180.4 930 1173.5 930C1166.6 930 1161 924.404 1161 917.5C1161 910.596 1166.6 905 1173.5 905C1180.4 905 1186 910.596 1186 917.5Z" fill="#B8FE4E" fill-opacity="0.8"/>
<path d="M1186 1161.5C1186 1168.4 1180.4 1174 1173.5 1174C1166.6 1174 1161 1168.4 1161 1161.5C1161 1154.6 1166.6 1149 1173.5 1149C1180.4 1149 1186 1154.6 1186 1161.5Z" fill="#B8FE4E" fill-opacity="0.8"/>
<path d="M1162.5 923.5L1078.5 972M1068.5 991V1087M1078.5 1105.5L1163 1155M1184.5 1155.5L1268 1106M1184.5 923.5L1268 972M1279 1087V991M1080 1099.5C1080 1106.4 1074.4 1112 1067.5 1112C1060.6 1112 1055 1106.4 1055 1099.5C1055 1092.6 1060.6 1087 1067.5 1087C1074.4 1087 1080 1092.6 1080 1099.5ZM1080 978.5C1080 985.404 1074.4 991 1067.5 991C1060.6 991 1055 985.404 1055 978.5C1055 971.596 1060.6 966 1067.5 966C1074.4 966 1080 971.596 1080 978.5ZM1291 1099.5C1291 1106.4 1285.4 1112 1278.5 1112C1271.6 1112 1266 1106.4 1266 1099.5C1266 1092.6 1271.6 1087 1278.5 1087C1285.4 1087 1291 1092.6 1291 1099.5ZM1291 978.5C1291 985.404 1285.4 991 1278.5 991C1271.6 991 1266 985.404 1266 978.5C1266 971.596 1271.6 966 1278.5 966C1285.4 966 1291 971.596 1291 978.5ZM1186 917.5C1186 924.404 1180.4 930 1173.5 930C1166.6 930 1161 924.404 1161 917.5C1161 910.596 1166.6 905 1173.5 905C1180.4 905 1186 910.596 1186 917.5ZM1186 1161.5C1186 1168.4 1180.4 1174 1173.5 1174C1166.6 1174 1161 1168.4 1161 1161.5C1161 1154.6 1166.6 1149 1173.5 1149C1180.4 1149 1186 1154.6 1186 1161.5Z" stroke="#B8FE4E" stroke-opacity="0.9" stroke-width="2"/>
<path d="M575 53.5C575 60.4036 569.404 66 562.5 66C555.596 66 550 60.4036 550 53.5C550 46.5964 555.596 41 562.5 41C569.404 41 575 46.5964 575 53.5Z" fill="#B8FE4E" fill-opacity="0.8"/>
<path d="M575 -67.5C575 -60.5964 569.404 -55 562.5 -55C555.596 -55 550 -60.5964 550 -67.5C550 -74.4036 555.596 -80 562.5 -80C569.404 -80 575 -74.4036 575 -67.5Z" fill="#B8FE4E" fill-opacity="0.8"/>
<path d="M786 53.5C786 60.4036 780.404 66 773.5 66C766.596 66 761 60.4036 761 53.5C761 46.5964 766.596 41 773.5 41C780.404 41 786 46.5964 786 53.5Z" fill="#B8FE4E" fill-opacity="0.8"/>
<path d="M786 -67.5C786 -60.5964 780.404 -55 773.5 -55C766.596 -55 761 -60.5964 761 -67.5C761 -74.4036 766.596 -80 773.5 -80C780.404 -80 786 -74.4036 786 -67.5Z" fill="#B8FE4E" fill-opacity="0.8"/>
<path d="M681 -128.5C681 -121.596 675.404 -116 668.5 -116C661.596 -116 656 -121.596 656 -128.5C656 -135.404 661.596 -141 668.5 -141C675.404 -141 681 -135.404 681 -128.5Z" fill="#B8FE4E" fill-opacity="0.8"/>
<path d="M681 115.5C681 122.404 675.404 128 668.5 128C661.596 128 656 122.404 656 115.5C656 108.596 661.596 103 668.5 103C675.404 103 681 108.596 681 115.5Z" fill="#B8FE4E" fill-opacity="0.8"/>
<path d="M657.5 -122.5L573.5 -74M563.5 -55V41M573.5 59.5L658 109M679.5 109.5L763 60M679.5 -122.5L763 -74M774 41V-55M575 53.5C575 60.4036 569.404 66 562.5 66C555.596 66 550 60.4036 550 53.5C550 46.5964 555.596 41 562.5 41C569.404 41 575 46.5964 575 53.5ZM575 -67.5C575 -60.5964 569.404 -55 562.5 -55C555.596 -55 550 -60.5964 550 -67.5C550 -74.4036 555.596 -80 562.5 -80C569.404 -80 575 -74.4036 575 -67.5ZM786 53.5C786 60.4036 780.404 66 773.5 66C766.596 66 761 60.4036 761 53.5C761 46.5964 766.596 41 773.5 41C780.404 41 786 46.5964 786 53.5ZM786 -67.5C786 -60.5964 780.404 -55 773.5 -55C766.596 -55 761 -60.5964 761 -67.5C761 -74.4036 766.596 -80 773.5 -80C780.404 -80 786 -74.4036 786 -67.5ZM681 -128.5C681 -121.596 675.404 -116 668.5 -116C661.596 -116 656 -121.596 656 -128.5C656 -135.404 661.596 -141 668.5 -141C675.404 -141 681 -135.404 681 -128.5ZM681 115.5C681 122.404 675.404 128 668.5 128C661.596 128 656 122.404 656 115.5C656 108.596 661.596 103 668.5 103C675.404 103 681 108.596 681 115.5Z" stroke="#B8FE4E" stroke-opacity="0.9" stroke-width="2"/>
<path d="M737.203 469.597C737.21 462.694 742.812 457.103 749.716 457.11C756.619 457.118 762.21 462.72 762.203 469.623C762.195 476.527 756.593 482.118 749.69 482.11C742.786 482.103 737.195 476.501 737.203 469.597Z" fill="#B8FE4E" fill-opacity="0.9"/>
<path d="M737.076 590.597C737.084 583.694 742.686 578.103 749.59 578.11C756.493 578.118 762.084 583.72 762.076 590.623C762.069 597.527 756.467 603.118 749.563 603.11C742.66 603.103 737.069 597.501 737.076 590.597Z" fill="#B8FE4E" fill-opacity="0.9"/>
<path d="M526.203 469.378C526.21 462.474 531.812 456.883 538.716 456.891C545.619 456.898 551.21 462.5 551.203 469.404C551.195 476.307 545.593 481.898 538.69 481.891C531.786 481.883 526.196 476.281 526.203 469.378Z" fill="#B8FE4E" fill-opacity="0.9"/>
<path d="M526.077 590.377C526.084 583.474 531.686 577.883 538.59 577.89C545.493 577.898 551.084 583.5 551.077 590.404C551.069 597.307 545.467 602.898 538.564 602.89C531.66 602.883 526.069 597.281 526.077 590.377Z" fill="#B8FE4E" fill-opacity="0.9"/>
<path d="M631.013 651.487C631.02 644.583 636.622 638.993 643.526 639C650.43 639.007 656.02 644.609 656.013 651.513C656.006 658.416 650.404 664.007 643.5 664C636.596 663.993 631.006 658.39 631.013 651.487Z" fill="#B8FE4E" fill-opacity="0.9"/>
<path d="M631.267 407.487C631.274 400.583 636.877 394.993 643.78 395C650.684 395.007 656.274 400.609 656.267 407.513C656.26 414.417 650.658 420.007 643.754 420C636.851 419.993 631.26 414.391 631.267 407.487Z" fill="#B8FE4E" fill-opacity="0.9"/>
<path d="M445 772.378C445 779.281 439.404 784.878 432.5 784.878C425.596 784.878 420 779.281 420 772.378C420 765.474 425.596 759.878 432.5 759.878C439.404 759.878 445 765.474 445 772.378Z" fill="#B8FE4E" fill-opacity="0.9"/>
<path d="M445 651.378C445 658.281 439.404 663.878 432.5 663.878C425.596 663.878 420 658.281 420 651.378C420 644.474 425.596 638.878 432.5 638.878C439.404 638.878 445 644.474 445 651.378Z" fill="#B8FE4E" fill-opacity="0.9"/>
<path d="M656 772.378C656 779.281 650.404 784.878 643.5 784.878C636.596 784.878 631 779.281 631 772.378C631 765.474 636.596 759.878 643.5 759.878C650.404 759.878 656 765.474 656 772.378Z" fill="#B8FE4E" fill-opacity="0.9"/>
<path d="M656 651.378C656 658.281 650.404 663.878 643.5 663.878C636.596 663.878 631 658.281 631 651.378C631 644.474 636.596 638.878 643.5 638.878C650.404 638.878 656 644.474 656 651.378Z" fill="#B8FE4E" fill-opacity="0.9"/>
<path d="M551 590.378C551 597.281 545.404 602.878 538.5 602.878C531.596 602.878 526 597.281 526 590.378C526 583.474 531.596 577.878 538.5 577.878C545.404 577.878 551 583.474 551 590.378Z" fill="#B8FE4E" fill-opacity="0.9"/>
<path d="M551 834.378C551 841.281 545.404 846.878 538.5 846.878C531.596 846.878 526 841.281 526 834.378C526 827.474 531.596 821.878 538.5 821.878C545.404 821.878 551 827.474 551 834.378Z" fill="#B8FE4E" fill-opacity="0.9"/>
<path d="M654.519 645.511L738.57 597.099M748.59 578.109L748.69 482.109M738.709 463.599L654.26 414.011M632.761 413.489L549.209 462.901M632.519 645.488L549.07 596.901M538.19 481.89L538.09 577.89M527.5 596.378L443.5 644.878M433.5 663.878V759.878M443.5 778.378L528 827.878M549.5 828.378L633 778.878M549.5 596.378L633 644.878M644 759.878V663.878M737.203 469.597C737.21 462.694 742.812 457.103 749.716 457.11C756.619 457.118 762.21 462.72 762.203 469.623C762.195 476.527 756.593 482.118 749.69 482.11C742.786 482.103 737.195 476.501 737.203 469.597ZM737.076 590.597C737.084 583.694 742.686 578.103 749.59 578.11C756.493 578.118 762.084 583.72 762.076 590.623C762.069 597.527 756.467 603.118 749.563 603.11C742.66 603.103 737.069 597.501 737.076 590.597ZM526.203 469.378C526.21 462.474 531.812 456.883 538.716 456.891C545.619 456.898 551.21 462.5 551.203 469.404C551.195 476.307 545.593 481.898 538.69 481.891C531.786 481.883 526.196 476.281 526.203 469.378ZM526.077 590.377C526.084 583.474 531.686 577.883 538.59 577.89C545.493 577.898 551.084 583.5 551.077 590.404C551.069 597.307 545.467 602.898 538.564 602.89C531.66 602.883 526.069 597.281 526.077 590.377ZM631.013 651.487C631.02 644.583 636.622 638.993 643.526 639C650.43 639.007 656.02 644.609 656.013 651.513C656.006 658.416 650.404 664.007 643.5 664C636.596 663.993 631.006 658.39 631.013 651.487ZM631.267 407.487C631.274 400.583 636.877 394.993 643.78 395C650.684 395.007 656.274 400.609 656.267 407.513C656.26 414.417 650.658 420.007 643.754 420C636.851 419.993 631.26 414.391 631.267 407.487ZM445 772.378C445 779.281 439.404 784.878 432.5 784.878C425.596 784.878 420 779.281 420 772.378C420 765.474 425.596 759.878 432.5 759.878C439.404 759.878 445 765.474 445 772.378ZM445 651.378C445 658.281 439.404 663.878 432.5 663.878C425.596 663.878 420 658.281 420 651.378C420 644.474 425.596 638.878 432.5 638.878C439.404 638.878 445 644.474 445 651.378ZM656 772.378C656 779.281 650.404 784.878 643.5 784.878C636.596 784.878 631 779.281 631 772.378C631 765.474 636.596 759.878 643.5 759.878C650.404 759.878 656 765.474 656 772.378ZM656 651.378C656 658.281 650.404 663.878 643.5 663.878C636.596 663.878 631 658.281 631 651.378C631 644.474 636.596 638.878 643.5 638.878C650.404 638.878 656 644.474 656 651.378ZM551 590.378C551 597.281 545.404 602.878 538.5 602.878C531.596 602.878 526 597.281 526 590.378C526 583.474 531.596 577.878 538.5 577.878C545.404 577.878 551 583.474 551 590.378ZM551 834.378C551 841.281 545.404 846.878 538.5 846.878C531.596 846.878 526 841.281 526 834.378C526 827.474 531.596 821.878 538.5 821.878C545.404 821.878 551 827.474 551 834.378Z" stroke="#B8FE4E" stroke-opacity="0.9" stroke-width="2"/>
<path d="M1141 448.5C1141 455.404 1135.4 461 1128.5 461C1121.6 461 1116 455.404 1116 448.5C1116 441.596 1121.6 436 1128.5 436C1135.4 436 1141 441.596 1141 448.5Z" fill="#B8FE4E" fill-opacity="0.8"/>
<path d="M1141 327.5C1141 334.404 1135.4 340 1128.5 340C1121.6 340 1116 334.404 1116 327.5C1116 320.596 1121.6 315 1128.5 315C1135.4 315 1141 320.596 1141 327.5Z" fill="#B8FE4E" fill-opacity="0.8"/>
<path d="M1352 448.5C1352 455.404 1346.4 461 1339.5 461C1332.6 461 1327 455.404 1327 448.5C1327 441.596 1332.6 436 1339.5 436C1346.4 436 1352 441.596 1352 448.5Z" fill="#B8FE4E" fill-opacity="0.8"/>
<path d="M1352 327.5C1352 334.404 1346.4 340 1339.5 340C1332.6 340 1327 334.404 1327 327.5C1327 320.596 1332.6 315 1339.5 315C1346.4 315 1352 320.596 1352 327.5Z" fill="#B8FE4E" fill-opacity="0.8"/>
<path d="M1247 266.5C1247 273.404 1241.4 279 1234.5 279C1227.6 279 1222 273.404 1222 266.5C1222 259.596 1227.6 254 1234.5 254C1241.4 254 1247 259.596 1247 266.5Z" fill="#B8FE4E" fill-opacity="0.8"/>
<path d="M1247 510.5C1247 517.404 1241.4 523 1234.5 523C1227.6 523 1222 517.404 1222 510.5C1222 503.596 1227.6 498 1234.5 498C1241.4 498 1247 503.596 1247 510.5Z" fill="#B8FE4E" fill-opacity="0.8"/>
<path d="M1352 815.5C1352 822.404 1346.4 828 1339.5 828C1332.6 828 1327 822.404 1327 815.5C1327 808.596 1332.6 803 1339.5 803C1346.4 803 1352 808.596 1352 815.5Z" fill="#B8FE4E" fill-opacity="0.8"/>
<path d="M1352 694.5C1352 701.404 1346.4 707 1339.5 707C1332.6 707 1327 701.404 1327 694.5C1327 687.596 1332.6 682 1339.5 682C1346.4 682 1352 687.596 1352 694.5Z" fill="#B8FE4E" fill-opacity="0.8"/>
<path d="M1563 815.5C1563 822.404 1557.4 828 1550.5 828C1543.6 828 1538 822.404 1538 815.5C1538 808.596 1543.6 803 1550.5 803C1557.4 803 1563 808.596 1563 815.5Z" fill="#B8FE4E" fill-opacity="0.8"/>
<path d="M1563 694.5C1563 701.404 1557.4 707 1550.5 707C1543.6 707 1538 701.404 1538 694.5C1538 687.596 1543.6 682 1550.5 682C1557.4 682 1563 687.596 1563 694.5Z" fill="#B8FE4E" fill-opacity="0.8"/>
<path d="M1458 633.5C1458 640.404 1452.4 646 1445.5 646C1438.6 646 1433 640.404 1433 633.5C1433 626.596 1438.6 621 1445.5 621C1452.4 621 1458 626.596 1458 633.5Z" fill="#B8FE4E" fill-opacity="0.8"/>
<path d="M1458 877.5C1458 884.404 1452.4 890 1445.5 890C1438.6 890 1433 884.404 1433 877.5C1433 870.596 1438.6 865 1445.5 865C1452.4 865 1458 870.596 1458 877.5Z" fill="#B8FE4E" fill-opacity="0.8"/>
<path d="M1880 630.5C1880 637.404 1874.4 643 1867.5 643C1860.6 643 1855 637.404 1855 630.5C1855 623.596 1860.6 618 1867.5 618C1874.4 618 1880 623.596 1880 630.5Z" fill="#B8FE4E" fill-opacity="0.8"/>
<path d="M1880 509.5C1880 516.404 1874.4 522 1867.5 522C1860.6 522 1855 516.404 1855 509.5C1855 502.596 1860.6 497 1867.5 497C1874.4 497 1880 502.596 1880 509.5Z" fill="#B8FE4E" fill-opacity="0.8"/>
<path d="M2091 630.5C2091 637.404 2085.4 643 2078.5 643C2071.6 643 2066 637.404 2066 630.5C2066 623.596 2071.6 618 2078.5 618C2085.4 618 2091 623.596 2091 630.5Z" fill="#B8FE4E" fill-opacity="0.8"/>
<path d="M2091 509.5C2091 516.404 2085.4 522 2078.5 522C2071.6 522 2066 516.404 2066 509.5C2066 502.596 2071.6 497 2078.5 497C2085.4 497 2091 502.596 2091 509.5Z" fill="#B8FE4E" fill-opacity="0.8"/>
<path d="M1986 448.5C1986 455.404 1980.4 461 1973.5 461C1966.6 461 1961 455.404 1961 448.5C1961 441.596 1966.6 436 1973.5 436C1980.4 436 1986 441.596 1986 448.5Z" fill="#B8FE4E" fill-opacity="0.8"/>
<path d="M1986 692.5C1986 699.404 1980.4 705 1973.5 705C1966.6 705 1961 699.404 1961 692.5C1961 685.596 1966.6 680 1973.5 680C1980.4 680 1986 685.596 1986 692.5Z" fill="#B8FE4E" fill-opacity="0.8"/>
<path d="M1774 447.5C1774 454.404 1768.4 460 1761.5 460C1754.6 460 1749 454.404 1749 447.5C1749 440.596 1754.6 435 1761.5 435C1768.4 435 1774 440.596 1774 447.5Z" fill="#B8FE4E" fill-opacity="0.8"/>
<path d="M1774 326.5C1774 333.404 1768.4 339 1761.5 339C1754.6 339 1749 333.404 1749 326.5C1749 319.596 1754.6 314 1761.5 314C1768.4 314 1774 319.596 1774 326.5Z" fill="#B8FE4E" fill-opacity="0.8"/>
<path d="M1985 447.5C1985 454.404 1979.4 460 1972.5 460C1965.6 460 1960 454.404 1960 447.5C1960 440.596 1965.6 435 1972.5 435C1979.4 435 1985 440.596 1985 447.5Z" fill="#B8FE4E" fill-opacity="0.8"/>
<path d="M1985 326.5C1985 333.404 1979.4 339 1972.5 339C1965.6 339 1960 333.404 1960 326.5C1960 319.596 1965.6 314 1972.5 314C1979.4 314 1985 319.596 1985 326.5Z" fill="#B8FE4E" fill-opacity="0.8"/>
<path d="M1880 265.5C1880 272.404 1874.4 278 1867.5 278C1860.6 278 1855 272.404 1855 265.5C1855 258.596 1860.6 253 1867.5 253C1874.4 253 1880 258.596 1880 265.5Z" fill="#B8FE4E" fill-opacity="0.8"/>
<path d="M1880 509.5C1880 516.404 1874.4 522 1867.5 522C1860.6 522 1855 516.404 1855 509.5C1855 502.596 1860.6 497 1867.5 497C1874.4 497 1880 502.596 1880 509.5Z" fill="#B8FE4E" fill-opacity="0.8"/>
<path d="M1352 447.5C1352 454.404 1346.4 460 1339.5 460C1332.6 460 1327 454.404 1327 447.5C1327 440.596 1332.6 435 1339.5 435C1346.4 435 1352 440.596 1352 447.5Z" fill="#B8FE4E" fill-opacity="0.8"/>
<path d="M1352 326.5C1352 333.404 1346.4 339 1339.5 339C1332.6 339 1327 333.404 1327 326.5C1327 319.596 1332.6 314 1339.5 314C1346.4 314 1352 319.596 1352 326.5Z" fill="#B8FE4E" fill-opacity="0.8"/>
<path d="M1563 447.5C1563 454.404 1557.4 460 1550.5 460C1543.6 460 1538 454.404 1538 447.5C1538 440.596 1543.6 435 1550.5 435C1557.4 435 1563 440.596 1563 447.5Z" fill="#B8FE4E" fill-opacity="0.8"/>
<path d="M1563 326.5C1563 333.404 1557.4 339 1550.5 339C1543.6 339 1538 333.404 1538 326.5C1538 319.596 1543.6 314 1550.5 314C1557.4 314 1563 319.596 1563 326.5Z" fill="#B8FE4E" fill-opacity="0.8"/>
<path d="M1458 265.5C1458 272.404 1452.4 278 1445.5 278C1438.6 278 1433 272.404 1433 265.5C1433 258.596 1438.6 253 1445.5 253C1452.4 253 1458 258.596 1458 265.5Z" fill="#B8FE4E" fill-opacity="0.8"/>
<path d="M1458 509.5C1458 516.404 1452.4 522 1445.5 522C1438.6 522 1433 516.404 1433 509.5C1433 502.596 1438.6 497 1445.5 497C1452.4 497 1458 502.596 1458 509.5Z" fill="#B8FE4E" fill-opacity="0.8"/>
<path d="M1668 265.5C1668 272.404 1662.4 278 1655.5 278C1648.6 278 1643 272.404 1643 265.5C1643 258.596 1648.6 253 1655.5 253C1662.4 253 1668 258.596 1668 265.5Z" fill="#B8FE4E" fill-opacity="0.8"/>
<path d="M1668 144.5C1668 151.404 1662.4 157 1655.5 157C1648.6 157 1643 151.404 1643 144.5C1643 137.596 1648.6 132 1655.5 132C1662.4 132 1668 137.596 1668 144.5Z" fill="#B8FE4E" fill-opacity="0.8"/>
<path d="M1879 265.5C1879 272.404 1873.4 278 1866.5 278C1859.6 278 1854 272.404 1854 265.5C1854 258.596 1859.6 253 1866.5 253C1873.4 253 1879 258.596 1879 265.5Z" fill="#B8FE4E" fill-opacity="0.8"/>
<path d="M1879 144.5C1879 151.404 1873.4 157 1866.5 157C1859.6 157 1854 151.404 1854 144.5C1854 137.596 1859.6 132 1866.5 132C1873.4 132 1879 137.596 1879 144.5Z" fill="#B8FE4E" fill-opacity="0.8"/>
<path d="M1774 83.5C1774 90.4036 1768.4 96 1761.5 96C1754.6 96 1749 90.4036 1749 83.5C1749 76.5964 1754.6 71 1761.5 71C1768.4 71 1774 76.5964 1774 83.5Z" fill="#B8FE4E" fill-opacity="0.8"/>
<path d="M1774 327.5C1774 334.404 1768.4 340 1761.5 340C1754.6 340 1749 334.404 1749 327.5C1749 320.596 1754.6 315 1761.5 315C1768.4 315 1774 320.596 1774 327.5Z" fill="#B8FE4E" fill-opacity="0.8"/>
<path d="M1749 327.5C1749 320.596 1754.6 315 1761.5 315C1768.4 315 1774 320.596 1774 327.5C1774 334.404 1768.4 340 1761.5 340C1754.6 340 1749 334.404 1749 327.5Z" fill="#B8FE4E" fill-opacity="0.8"/>
<path d="M1749 448.5C1749 441.596 1754.6 436 1761.5 436C1768.4 436 1774 441.596 1774 448.5C1774 455.404 1768.4 461 1761.5 461C1754.6 461 1749 455.404 1749 448.5Z" fill="#B8FE4E" fill-opacity="0.8"/>
<path d="M1538 327.5C1538 320.596 1543.6 315 1550.5 315C1557.4 315 1563 320.596 1563 327.5C1563 334.404 1557.4 340 1550.5 340C1543.6 340 1538 334.404 1538 327.5Z" fill="#B8FE4E" fill-opacity="0.8"/>
<path d="M1538 448.5C1538 441.596 1543.6 436 1550.5 436C1557.4 436 1563 441.596 1563 448.5C1563 455.404 1557.4 461 1550.5 461C1543.6 461 1538 455.404 1538 448.5Z" fill="#B8FE4E" fill-opacity="0.8"/>
<path d="M1643 509.5C1643 502.596 1648.6 497 1655.5 497C1662.4 497 1668 502.596 1668 509.5C1668 516.404 1662.4 522 1655.5 522C1648.6 522 1643 516.404 1643 509.5Z" fill="#B8FE4E" fill-opacity="0.8"/>
<path d="M1643 265.5C1643 258.596 1648.6 253 1655.5 253C1662.4 253 1668 258.596 1668 265.5C1668 272.404 1662.4 278 1655.5 278C1648.6 278 1643 272.404 1643 265.5Z" fill="#B8FE4E" fill-opacity="0.8"/>
<path d="M1457 630.5C1457 637.404 1451.4 643 1444.5 643C1437.6 643 1432 637.404 1432 630.5C1432 623.596 1437.6 618 1444.5 618C1451.4 618 1457 623.596 1457 630.5Z" fill="#B8FE4E" fill-opacity="0.8"/>
<path d="M1457 509.5C1457 516.404 1451.4 522 1444.5 522C1437.6 522 1432 516.404 1432 509.5C1432 502.596 1437.6 497 1444.5 497C1451.4 497 1457 502.596 1457 509.5Z" fill="#B8FE4E" fill-opacity="0.8"/>
<path d="M1668 630.5C1668 637.404 1662.4 643 1655.5 643C1648.6 643 1643 637.404 1643 630.5C1643 623.596 1648.6 618 1655.5 618C1662.4 618 1668 623.596 1668 630.5Z" fill="#B8FE4E" fill-opacity="0.8"/>
<path d="M1668 509.5C1668 516.404 1662.4 522 1655.5 522C1648.6 522 1643 516.404 1643 509.5C1643 502.596 1648.6 497 1655.5 497C1662.4 497 1668 502.596 1668 509.5Z" fill="#B8FE4E" fill-opacity="0.8"/>
<path d="M1563 448.5C1563 455.404 1557.4 461 1550.5 461C1543.6 461 1538 455.404 1538 448.5C1538 441.596 1543.6 436 1550.5 436C1557.4 436 1563 441.596 1563 448.5Z" fill="#B8FE4E" fill-opacity="0.8"/>
<path d="M1563 692.5C1563 699.404 1557.4 705 1550.5 705C1543.6 705 1538 699.404 1538 692.5C1538 685.596 1543.6 680 1550.5 680C1557.4 680 1563 685.596 1563 692.5Z" fill="#B8FE4E" fill-opacity="0.8"/>
<path d="M1960 -37.5C1960 -44.4036 1965.6 -50 1972.5 -50C1979.4 -50 1985 -44.4036 1985 -37.5C1985 -30.5964 1979.4 -25 1972.5 -25C1965.6 -25 1960 -30.5964 1960 -37.5Z" fill="#B8FE4E" fill-opacity="0.8"/>
<path d="M1960 83.5C1960 76.5964 1965.6 71 1972.5 71C1979.4 71 1985 76.5964 1985 83.5C1985 90.4036 1979.4 96 1972.5 96C1965.6 96 1960 90.4036 1960 83.5Z" fill="#B8FE4E" fill-opacity="0.8"/>
<path d="M1749 -37.5C1749 -44.4036 1754.6 -50 1761.5 -50C1768.4 -50 1774 -44.4036 1774 -37.5C1774 -30.5964 1768.4 -25 1761.5 -25C1754.6 -25 1749 -30.5964 1749 -37.5Z" fill="#B8FE4E" fill-opacity="0.8"/>
<path d="M1749 83.5C1749 76.5964 1754.6 71 1761.5 71C1768.4 71 1774 76.5964 1774 83.5C1774 90.4036 1768.4 96 1761.5 96C1754.6 96 1749 90.4036 1749 83.5Z" fill="#B8FE4E" fill-opacity="0.8"/>
<path d="M1854 144.5C1854 137.596 1859.6 132 1866.5 132C1873.4 132 1879 137.596 1879 144.5C1879 151.404 1873.4 157 1866.5 157C1859.6 157 1854 151.404 1854 144.5Z" fill="#B8FE4E" fill-opacity="0.8"/>
<path d="M1854 -99.5C1854 -106.404 1859.6 -112 1866.5 -112C1873.4 -112 1879 -106.404 1879 -99.5C1879 -92.5964 1873.4 -87 1866.5 -87C1859.6 -87 1854 -92.5964 1854 -99.5Z" fill="#B8FE4E" fill-opacity="0.8"/>
<path d="M1223.5 272.5L1139.5 321M1129.5 340V436M1139.5 454.5L1224 504M1245.5 504.5L1329 455M1245.5 272.5L1329 321M1340 436V340M1434.5 639.5L1350.5 688M1340.5 707V803M1350.5 821.5L1435 871M1456.5 871.5L1540 822M1456.5 639.5L1540 688M1551 803V707M1962.5 454.5L1878.5 503M1868.5 522V618M1878.5 636.5L1963 686M1984.5 686.5L2068 637M1984.5 454.5L2068 503M2079 618V522M1856.5 271.5L1772.5 320M1762.5 339V435M1772.5 453.5L1857 503M1878.5 503.5L1962 454M1878.5 271.5L1962 320M1973 435V339M1434.5 271.5L1350.5 320M1340.5 339V435M1350.5 453.5L1435 503M1456.5 503.5L1540 454M1456.5 271.5L1540 320M1551 435V339M1445.5 522C1452.4 522 1458 516.404 1458 509.5C1458 502.596 1452.4 497 1445.5 497C1438.6 497 1433 502.596 1433 509.5C1433 516.404 1438.6 522 1445.5 522ZM1445.5 522V618M1750.5 89.5L1666.5 138M1656.5 157V253M1666.5 271.5L1751 321M1772.5 321.5L1856 272M1772.5 89.5L1856 138M1867 253V157M1666.5 503.5L1750.5 455M1760.5 436V340M1750.5 321.5L1666 272M1644.5 271.5L1561 321M1644.5 503.5L1561 455M1550 340V436M1539.5 454.5L1455.5 503M1455.5 636.5L1540 686M1561.5 686.5L1645 637M1561.5 454.5L1645 503M1656 618V522M1877.5 138.5L1961.5 90M1971.5 71V-25M1961.5 -43.5L1877 -93M1855.5 -93.5L1772 -44M1855.5 138.5L1772 90M1761 -25V71M1141 448.5C1141 455.404 1135.4 461 1128.5 461C1121.6 461 1116 455.404 1116 448.5C1116 441.596 1121.6 436 1128.5 436C1135.4 436 1141 441.596 1141 448.5ZM1141 327.5C1141 334.404 1135.4 340 1128.5 340C1121.6 340 1116 334.404 1116 327.5C1116 320.596 1121.6 315 1128.5 315C1135.4 315 1141 320.596 1141 327.5ZM1352 448.5C1352 455.404 1346.4 461 1339.5 461C1332.6 461 1327 455.404 1327 448.5C1327 441.596 1332.6 436 1339.5 436C1346.4 436 1352 441.596 1352 448.5ZM1352 327.5C1352 334.404 1346.4 340 1339.5 340C1332.6 340 1327 334.404 1327 327.5C1327 320.596 1332.6 315 1339.5 315C1346.4 315 1352 320.596 1352 327.5ZM1247 266.5C1247 273.404 1241.4 279 1234.5 279C1227.6 279 1222 273.404 1222 266.5C1222 259.596 1227.6 254 1234.5 254C1241.4 254 1247 259.596 1247 266.5ZM1247 510.5C1247 517.404 1241.4 523 1234.5 523C1227.6 523 1222 517.404 1222 510.5C1222 503.596 1227.6 498 1234.5 498C1241.4 498 1247 503.596 1247 510.5ZM1352 815.5C1352 822.404 1346.4 828 1339.5 828C1332.6 828 1327 822.404 1327 815.5C1327 808.596 1332.6 803 1339.5 803C1346.4 803 1352 808.596 1352 815.5ZM1352 694.5C1352 701.404 1346.4 707 1339.5 707C1332.6 707 1327 701.404 1327 694.5C1327 687.596 1332.6 682 1339.5 682C1346.4 682 1352 687.596 1352 694.5ZM1563 815.5C1563 822.404 1557.4 828 1550.5 828C1543.6 828 1538 822.404 1538 815.5C1538 808.596 1543.6 803 1550.5 803C1557.4 803 1563 808.596 1563 815.5ZM1563 694.5C1563 701.404 1557.4 707 1550.5 707C1543.6 707 1538 701.404 1538 694.5C1538 687.596 1543.6 682 1550.5 682C1557.4 682 1563 687.596 1563 694.5ZM1458 633.5C1458 640.404 1452.4 646 1445.5 646C1438.6 646 1433 640.404 1433 633.5C1433 626.596 1438.6 621 1445.5 621C1452.4 621 1458 626.596 1458 633.5ZM1458 877.5C1458 884.404 1452.4 890 1445.5 890C1438.6 890 1433 884.404 1433 877.5C1433 870.596 1438.6 865 1445.5 865C1452.4 865 1458 870.596 1458 877.5ZM1880 630.5C1880 637.404 1874.4 643 1867.5 643C1860.6 643 1855 637.404 1855 630.5C1855 623.596 1860.6 618 1867.5 618C1874.4 618 1880 623.596 1880 630.5ZM1880 509.5C1880 516.404 1874.4 522 1867.5 522C1860.6 522 1855 516.404 1855 509.5C1855 502.596 1860.6 497 1867.5 497C1874.4 497 1880 502.596 1880 509.5ZM2091 630.5C2091 637.404 2085.4 643 2078.5 643C2071.6 643 2066 637.404 2066 630.5C2066 623.596 2071.6 618 2078.5 618C2085.4 618 2091 623.596 2091 630.5ZM2091 509.5C2091 516.404 2085.4 522 2078.5 522C2071.6 522 2066 516.404 2066 509.5C2066 502.596 2071.6 497 2078.5 497C2085.4 497 2091 502.596 2091 509.5ZM1986 448.5C1986 455.404 1980.4 461 1973.5 461C1966.6 461 1961 455.404 1961 448.5C1961 441.596 1966.6 436 1973.5 436C1980.4 436 1986 441.596 1986 448.5ZM1986 692.5C1986 699.404 1980.4 705 1973.5 705C1966.6 705 1961 699.404 1961 692.5C1961 685.596 1966.6 680 1973.5 680C1980.4 680 1986 685.596 1986 692.5ZM1774 447.5C1774 454.404 1768.4 460 1761.5 460C1754.6 460 1749 454.404 1749 447.5C1749 440.596 1754.6 435 1761.5 435C1768.4 435 1774 440.596 1774 447.5ZM1774 326.5C1774 333.404 1768.4 339 1761.5 339C1754.6 339 1749 333.404 1749 326.5C1749 319.596 1754.6 314 1761.5 314C1768.4 314 1774 319.596 1774 326.5ZM1985 447.5C1985 454.404 1979.4 460 1972.5 460C1965.6 460 1960 454.404 1960 447.5C1960 440.596 1965.6 435 1972.5 435C1979.4 435 1985 440.596 1985 447.5ZM1985 326.5C1985 333.404 1979.4 339 1972.5 339C1965.6 339 1960 333.404 1960 326.5C1960 319.596 1965.6 314 1972.5 314C1979.4 314 1985 319.596 1985 326.5ZM1880 265.5C1880 272.404 1874.4 278 1867.5 278C1860.6 278 1855 272.404 1855 265.5C1855 258.596 1860.6 253 1867.5 253C1874.4 253 1880 258.596 1880 265.5ZM1352 447.5C1352 454.404 1346.4 460 1339.5 460C1332.6 460 1327 454.404 1327 447.5C1327 440.596 1332.6 435 1339.5 435C1346.4 435 1352 440.596 1352 447.5ZM1352 326.5C1352 333.404 1346.4 339 1339.5 339C1332.6 339 1327 333.404 1327 326.5C1327 319.596 1332.6 314 1339.5 314C1346.4 314 1352 319.596 1352 326.5ZM1563 447.5C1563 454.404 1557.4 460 1550.5 460C1543.6 460 1538 454.404 1538 447.5C1538 440.596 1543.6 435 1550.5 435C1557.4 435 1563 440.596 1563 447.5ZM1563 326.5C1563 333.404 1557.4 339 1550.5 339C1543.6 339 1538 333.404 1538 326.5C1538 319.596 1543.6 314 1550.5 314C1557.4 314 1563 319.596 1563 326.5ZM1458 265.5C1458 272.404 1452.4 278 1445.5 278C1438.6 278 1433 272.404 1433 265.5C1433 258.596 1438.6 253 1445.5 253C1452.4 253 1458 258.596 1458 265.5ZM1668 265.5C1668 272.404 1662.4 278 1655.5 278C1648.6 278 1643 272.404 1643 265.5C1643 258.596 1648.6 253 1655.5 253C1662.4 253 1668 258.596 1668 265.5ZM1668 144.5C1668 151.404 1662.4 157 1655.5 157C1648.6 157 1643 151.404 1643 144.5C1643 137.596 1648.6 132 1655.5 132C1662.4 132 1668 137.596 1668 144.5ZM1879 265.5C1879 272.404 1873.4 278 1866.5 278C1859.6 278 1854 272.404 1854 265.5C1854 258.596 1859.6 253 1866.5 253C1873.4 253 1879 258.596 1879 265.5ZM1879 144.5C1879 151.404 1873.4 157 1866.5 157C1859.6 157 1854 151.404 1854 144.5C1854 137.596 1859.6 132 1866.5 132C1873.4 132 1879 137.596 1879 144.5ZM1774 83.5C1774 90.4036 1768.4 96 1761.5 96C1754.6 96 1749 90.4036 1749 83.5C1749 76.5964 1754.6 71 1761.5 71C1768.4 71 1774 76.5964 1774 83.5ZM1774 327.5C1774 334.404 1768.4 340 1761.5 340C1754.6 340 1749 334.404 1749 327.5C1749 320.596 1754.6 315 1761.5 315C1768.4 315 1774 320.596 1774 327.5ZM1749 448.5C1749 441.596 1754.6 436 1761.5 436C1768.4 436 1774 441.596 1774 448.5C1774 455.404 1768.4 461 1761.5 461C1754.6 461 1749 455.404 1749 448.5ZM1538 327.5C1538 320.596 1543.6 315 1550.5 315C1557.4 315 1563 320.596 1563 327.5C1563 334.404 1557.4 340 1550.5 340C1543.6 340 1538 334.404 1538 327.5ZM1538 448.5C1538 441.596 1543.6 436 1550.5 436C1557.4 436 1563 441.596 1563 448.5C1563 455.404 1557.4 461 1550.5 461C1543.6 461 1538 455.404 1538 448.5ZM1643 509.5C1643 502.596 1648.6 497 1655.5 497C1662.4 497 1668 502.596 1668 509.5C1668 516.404 1662.4 522 1655.5 522C1648.6 522 1643 516.404 1643 509.5ZM1457 630.5C1457 637.404 1451.4 643 1444.5 643C1437.6 643 1432 637.404 1432 630.5C1432 623.596 1437.6 618 1444.5 618C1451.4 618 1457 623.596 1457 630.5ZM1457 509.5C1457 516.404 1451.4 522 1444.5 522C1437.6 522 1432 516.404 1432 509.5C1432 502.596 1437.6 497 1444.5 497C1451.4 497 1457 502.596 1457 509.5ZM1668 630.5C1668 637.404 1662.4 643 1655.5 643C1648.6 643 1643 637.404 1643 630.5C1643 623.596 1648.6 618 1655.5 618C1662.4 618 1668 623.596 1668 630.5ZM1563 692.5C1563 699.404 1557.4 705 1550.5 705C1543.6 705 1538 699.404 1538 692.5C1538 685.596 1543.6 680 1550.5 680C1557.4 680 1563 685.596 1563 692.5ZM1960 -37.5C1960 -44.4036 1965.6 -50 1972.5 -50C1979.4 -50 1985 -44.4036 1985 -37.5C1985 -30.5964 1979.4 -25 1972.5 -25C1965.6 -25 1960 -30.5964 1960 -37.5ZM1960 83.5C1960 76.5964 1965.6 71 1972.5 71C1979.4 71 1985 76.5964 1985 83.5C1985 90.4036 1979.4 96 1972.5 96C1965.6 96 1960 90.4036 1960 83.5ZM1749 -37.5C1749 -44.4036 1754.6 -50 1761.5 -50C1768.4 -50 1774 -44.4036 1774 -37.5C1774 -30.5964 1768.4 -25 1761.5 -25C1754.6 -25 1749 -30.5964 1749 -37.5ZM1854 -99.5C1854 -106.404 1859.6 -112 1866.5 -112C1873.4 -112 1879 -106.404 1879 -99.5C1879 -92.5964 1873.4 -87 1866.5 -87C1859.6 -87 1854 -92.5964 1854 -99.5Z" stroke="#B8FE4E" stroke-opacity="0.9" stroke-width="2"/>
<path d="M937.842 1048V1031.54H940.021V1038.3H948.578V1031.54H950.757V1048H948.578V1040.24H940.021V1048H937.842ZM954.71 1048V1045.7H957.012V1048H954.71ZM964.986 1048V1033.48H959.562V1031.54H972.611V1033.48H967.165V1048H964.986ZM972.611 1048V1045.7H974.914V1048H972.611ZM979.069 1048V1031.54H981.248V1048H979.069Z" fill="white"/>
</g>
<defs>
<clipPath id="clip0_1069_2">
<rect width="1920" height="1080" fill="white"/>
</clipPath>
</defs>
</svg>
