<svg width="124" height="31" viewBox="0 0 124 31" fill="none" xmlns="http://www.w3.org/2000/svg">
<path d="M6 16.5L1 25L11.5 30L22.5 25L33.5 30L44.5 25L55.5 30L66.5 25L77.5 30L88.5 25L99.5 30L110.5 25L122.5 30L117 16.5L122.5 5L110.5 1L99.5 5L88.5 1L77.5 6L66.5 1L55.5 6L44.5 1L33.5 6L22.5 1L11.5 6L1 1L6 16.5Z" fill="#B8FE4E" stroke="white"/>
<path d="M21.4062 17.9844L22.9219 18.3672C22.6042 19.612 22.0312 20.5625 21.2031 21.2188C20.3802 21.8698 19.3724 22.1953 18.1797 22.1953C16.9453 22.1953 15.9401 21.9453 15.1641 21.4453C14.3932 20.9401 13.8047 20.2109 13.3984 19.2578C12.9974 18.3047 12.7969 17.2812 12.7969 16.1875C12.7969 14.9948 13.0234 13.9557 13.4766 13.0703C13.9349 12.1797 14.5833 11.5052 15.4219 11.0469C16.2656 10.5833 17.1927 10.3516 18.2031 10.3516C19.349 10.3516 20.3125 10.6432 21.0938 11.2266C21.875 11.8099 22.4193 12.6302 22.7266 13.6875L21.2344 14.0391C20.9688 13.2057 20.5833 12.599 20.0781 12.2188C19.5729 11.8385 18.9375 11.6484 18.1719 11.6484C17.2917 11.6484 16.5547 11.8594 15.9609 12.2812C15.3724 12.7031 14.9583 13.2708 14.7188 13.9844C14.4792 14.6927 14.3594 15.4245 14.3594 16.1797C14.3594 17.1536 14.5 18.0052 14.7812 18.7344C15.0677 19.4583 15.5104 20 16.1094 20.3594C16.7083 20.7188 17.3568 20.8984 18.0547 20.8984C18.9036 20.8984 19.6224 20.6536 20.2109 20.1641C20.7995 19.6745 21.1979 18.9479 21.4062 17.9844ZM24.0938 17.8516C24.0938 16.3151 24.5208 15.1771 25.375 14.4375C26.0885 13.8229 26.9583 13.5156 27.9844 13.5156C29.125 13.5156 30.0573 13.8906 30.7812 14.6406C31.5052 15.3854 31.8672 16.4167 31.8672 17.7344C31.8672 18.8021 31.7057 19.6432 31.3828 20.2578C31.0651 20.8672 30.599 21.3411 29.9844 21.6797C29.375 22.0182 28.7083 22.1875 27.9844 22.1875C26.8229 22.1875 25.8828 21.8151 25.1641 21.0703C24.4505 20.3255 24.0938 19.2526 24.0938 17.8516ZM25.5391 17.8516C25.5391 18.9141 25.7708 19.7109 26.2344 20.2422C26.6979 20.7682 27.2812 21.0312 27.9844 21.0312C28.6823 21.0312 29.263 20.7656 29.7266 20.2344C30.1901 19.7031 30.4219 18.8932 30.4219 17.8047C30.4219 16.7786 30.1875 16.0026 29.7188 15.4766C29.2552 14.9453 28.6771 14.6797 27.9844 14.6797C27.2812 14.6797 26.6979 14.9427 26.2344 15.4688C25.7708 15.9948 25.5391 16.7891 25.5391 17.8516ZM35.1719 18.25V17.1484C35.7656 17.1432 36.1693 17.1198 36.3828 17.0781C36.6016 17.0365 36.8073 16.9115 37 16.7031C37.1927 16.4948 37.2891 16.2344 37.2891 15.9219C37.2891 15.5417 37.1615 15.2396 36.9062 15.0156C36.6562 14.7865 36.3307 14.6719 35.9297 14.6719C35.138 14.6719 34.5833 15.138 34.2656 16.0703L32.9297 15.8516C33.3464 14.2943 34.3516 13.5156 35.9453 13.5156C36.8307 13.5156 37.5234 13.7578 38.0234 14.2422C38.5286 14.7266 38.7812 15.3047 38.7812 15.9766C38.7812 16.6536 38.4531 17.1927 37.7969 17.5938C38.2135 17.8177 38.526 18.1042 38.7344 18.4531C38.9427 18.7969 39.0469 19.2057 39.0469 19.6797C39.0469 20.4245 38.776 21.0286 38.2344 21.4922C37.6927 21.9557 36.9349 22.1875 35.9609 22.1875C34.0703 22.1875 32.974 21.3464 32.6719 19.6641L33.9922 19.3828C34.112 19.9141 34.3542 20.3255 34.7188 20.6172C35.0885 20.9089 35.5104 21.0547 35.9844 21.0547C36.4583 21.0547 36.8516 20.9219 37.1641 20.6562C37.4818 20.3854 37.6406 20.0417 37.6406 19.625C37.6406 19.3021 37.5417 19.0208 37.3438 18.7812C37.1458 18.5417 36.9349 18.3932 36.7109 18.3359C36.487 18.2734 36.0807 18.2422 35.4922 18.2422C35.4453 18.2422 35.3385 18.2448 35.1719 18.25ZM41.4297 13.7031H47.2109V20.8438H48.1094V24.3516H46.9531V22H40.4219V24.3516H39.2656V20.8438H40.0078C40.9974 19.5 41.4714 17.1198 41.4297 13.7031ZM42.6016 14.8672C42.4974 17.5599 42.0807 19.5521 41.3516 20.8438H45.8125V14.8672H42.6016ZM55.0781 20.9766C54.5573 21.4193 54.0547 21.7318 53.5703 21.9141C53.0911 22.0964 52.5755 22.1875 52.0234 22.1875C51.112 22.1875 50.4115 21.9661 49.9219 21.5234C49.4323 21.0755 49.1875 20.5052 49.1875 19.8125C49.1875 19.4062 49.2786 19.0365 49.4609 18.7031C49.6484 18.3646 49.8906 18.0938 50.1875 17.8906C50.4896 17.6875 50.8281 17.5339 51.2031 17.4297C51.4792 17.3568 51.8958 17.2865 52.4531 17.2188C53.5885 17.0833 54.4245 16.9219 54.9609 16.7344C54.9661 16.5417 54.9688 16.4193 54.9688 16.3672C54.9688 15.7943 54.8359 15.3906 54.5703 15.1562C54.2109 14.8385 53.6771 14.6797 52.9688 14.6797C52.3073 14.6797 51.8177 14.7969 51.5 15.0312C51.1875 15.2604 50.9557 15.6693 50.8047 16.2578L49.4297 16.0703C49.5547 15.4818 49.7604 15.0078 50.0469 14.6484C50.3333 14.2839 50.7474 14.0052 51.2891 13.8125C51.8307 13.6146 52.4583 13.5156 53.1719 13.5156C53.8802 13.5156 54.4557 13.599 54.8984 13.7656C55.3411 13.9323 55.6667 14.1432 55.875 14.3984C56.0833 14.6484 56.2292 14.9661 56.3125 15.3516C56.3594 15.5911 56.3828 16.0234 56.3828 16.6484V18.5234C56.3828 19.8307 56.4115 20.6589 56.4688 21.0078C56.5312 21.3516 56.651 21.6823 56.8281 22H55.3594C55.2135 21.7083 55.1198 21.3672 55.0781 20.9766ZM54.9609 17.8359C54.4505 18.0443 53.6849 18.2214 52.6641 18.3672C52.0859 18.4505 51.6771 18.5443 51.4375 18.6484C51.1979 18.7526 51.013 18.9062 50.8828 19.1094C50.7526 19.3073 50.6875 19.5286 50.6875 19.7734C50.6875 20.1484 50.8281 20.4609 51.1094 20.7109C51.3958 20.9609 51.8125 21.0859 52.3594 21.0859C52.901 21.0859 53.3828 20.9688 53.8047 20.7344C54.2266 20.4948 54.5365 20.1693 54.7344 19.7578C54.8854 19.4401 54.9609 18.9714 54.9609 18.3516V17.8359ZM57.4531 13.7031H64.1953V14.8672H61.5234V22H60.125V14.8672H57.4531V13.7031ZM65.5156 13.7031H66.9219V16.9453H68.7031C69.8646 16.9453 70.7578 17.1719 71.3828 17.625C72.013 18.0729 72.3281 18.6927 72.3281 19.4844C72.3281 20.1771 72.0651 20.7708 71.5391 21.2656C71.0182 21.7552 70.1823 22 69.0312 22H65.5156V13.7031ZM66.9219 20.8438H68.3984C69.2891 20.8438 69.9245 20.7344 70.3047 20.5156C70.6849 20.2969 70.875 19.9557 70.875 19.4922C70.875 19.1328 70.7344 18.8125 70.4531 18.5312C70.1719 18.25 69.5495 18.1094 68.5859 18.1094H66.9219V20.8438ZM78.5156 22V10.5469H82.8359C83.5964 10.5469 84.1771 10.5833 84.5781 10.6562C85.1406 10.75 85.612 10.9297 85.9922 11.1953C86.3724 11.4557 86.6771 11.8229 86.9062 12.2969C87.1406 12.7708 87.2578 13.2917 87.2578 13.8594C87.2578 14.8333 86.9479 15.6589 86.3281 16.3359C85.7083 17.0078 84.5885 17.3438 82.9688 17.3438H80.0312V22H78.5156ZM80.0312 15.9922H82.9922C83.9714 15.9922 84.6667 15.8099 85.0781 15.4453C85.4896 15.0807 85.6953 14.5677 85.6953 13.9062C85.6953 13.4271 85.5729 13.0182 85.3281 12.6797C85.0885 12.3359 84.7708 12.1094 84.375 12C84.1198 11.9323 83.6484 11.8984 82.9609 11.8984H80.0312V15.9922ZM89.1875 22V10.5469H93.1328C94.0234 10.5469 94.7031 10.6016 95.1719 10.7109C95.8281 10.862 96.388 11.1354 96.8516 11.5312C97.4557 12.0417 97.9062 12.6953 98.2031 13.4922C98.5052 14.2839 98.6562 15.1901 98.6562 16.2109C98.6562 17.0807 98.5547 17.8516 98.3516 18.5234C98.1484 19.1953 97.888 19.7526 97.5703 20.1953C97.2526 20.6328 96.9036 20.9792 96.5234 21.2344C96.1484 21.4844 95.6927 21.6745 95.1562 21.8047C94.625 21.9349 94.013 22 93.3203 22H89.1875ZM90.7031 20.6484H93.1484C93.9036 20.6484 94.4948 20.5781 94.9219 20.4375C95.3542 20.2969 95.6979 20.099 95.9531 19.8438C96.3125 19.4844 96.5911 19.0026 96.7891 18.3984C96.9922 17.7891 97.0938 17.0521 97.0938 16.1875C97.0938 14.9896 96.8958 14.0703 96.5 13.4297C96.1094 12.7839 95.6328 12.3516 95.0703 12.1328C94.6641 11.9766 94.0104 11.8984 93.1094 11.8984H90.7031V20.6484ZM100.828 22V10.5469H108.555V11.8984H102.344V15.4453H107.719V16.7969H102.344V22H100.828Z" fill="#008000"/>
</svg>
